<?xml version="1.0" encoding="UTF-8" standalone="no"?>
<svg width="36px" height="36px" viewBox="0 0 36 36" version="1.1" xmlns="http://www.w3.org/2000/svg" xmlns:xlink="http://www.w3.org/1999/xlink" xmlns:sketch="http://www.bohemiancoding.com/sketch/ns">
    <!-- Generator: Sketch 3.0.4 (8053) - http://www.bohemiancoding.com/sketch -->
    <title>overages</title>
    <desc>Created with Sketch.</desc>
    <defs></defs>
    <g id="Page-1" stroke="none" stroke-width="1" fill="none" fill-rule="evenodd" sketch:type="MSPage">
        <g id="Tablet-Portrait" sketch:type="MSArtboardGroup" transform="translate(-364.000000, -566.000000)" fill="#666666">
            <path d="M393.888571,592.277604 L393.894571,592.274566 L382.738429,571.417038 L382.731571,571.421377 C382.580714,571.170113 382.311571,571 382,571 C381.688429,571 381.419286,571.170113 381.268429,571.421377 L381.261571,571.417038 L370.105429,592.274566 L370.111429,592.277604 C370.042857,592.403019 370,592.544925 370,592.698113 C370,593.177642 370.384,593.566038 370.857143,593.566038 L393.142857,593.566038 C393.616,593.566038 394,593.177642 394,592.698113 C394,592.544925 393.957143,592.403019 393.888571,592.277604 Z M382,590.962264 C381.053286,590.962264 380.285714,590.185038 380.285714,589.226415 C380.285714,588.267792 381.053286,587.490566 382,587.490566 C382.946714,587.490566 383.714286,588.267792 383.714286,589.226415 C383.714286,590.185038 382.946714,590.962264 382,590.962264 Z M382.857143,585.754717 C382.857143,586.234245 382.473143,586.622642 382,586.622642 C381.526429,586.622642 381.142857,586.234245 381.142857,585.754717 L380.285714,579.679245 C380.285714,579.200151 380.669714,578.811321 381.142857,578.811321 L382.857143,578.811321 C383.330286,578.811321 383.714286,579.200151 383.714286,579.679245 L382.857143,585.754717 Z M375.999987,566 C369.372577,566 364,571.370114 364,577.999987 L364,590.000013 C364,596.627423 369.370114,602 375.999987,602 L388.000013,602 C394.627423,602 400,596.629886 400,590.000013 L400,577.999987 C400,571.372577 394.629886,566 388.000013,566 L375.999987,566 Z" id="overages" sketch:type="MSShapeGroup"></path>
        </g>
    </g>
</svg>