<?xml version="1.0" encoding="UTF-8" standalone="no"?>
<svg width="36px" height="36px" viewBox="0 0 36 36" version="1.1" xmlns="http://www.w3.org/2000/svg" xmlns:xlink="http://www.w3.org/1999/xlink" xmlns:sketch="http://www.bohemiancoding.com/sketch/ns">
    <!-- Generator: Sketch 3.0.4 (8053) - http://www.bohemiancoding.com/sketch -->
    <title>taxes</title>
    <desc>Created with Sketch.</desc>
    <defs></defs>
    <g id="Page-1" stroke="none" stroke-width="1" fill="none" fill-rule="evenodd" sketch:type="MSPage">
        <g id="Tablet-Portrait" sketch:type="MSArtboardGroup" transform="translate(-458.000000, -566.000000)" fill="#666666">
            <path d="M487.142857,591.09434 C487.142857,590.615245 486.758857,590.226415 486.285714,590.226415 L485.428571,590.226415 L485.428571,580.679245 L486.714286,580.679245 C486.951286,580.679245 487.142857,580.485264 487.142857,580.245283 L487.142857,579.377358 C487.142857,579.22417 487.059714,579.095717 486.941,579.018472 L486.945286,579.011962 L476.231,572.068566 L476.226714,572.075075 C476.160286,572.031679 476.085286,572 476,572 C475.914714,572 475.840143,572.031679 475.773286,572.075075 L475.769,572.068566 L465.054714,579.011962 L465.059,579.018472 C464.940286,579.095717 464.857143,579.22417 464.857143,579.377358 L464.857143,580.245283 C464.857143,580.485264 465.048714,580.679245 465.285714,580.679245 L466.571429,580.679245 L466.571429,590.226415 L465.714286,590.226415 C465.240714,590.226415 464.857143,590.615245 464.857143,591.09434 L464.857143,591.962264 L487.142857,591.962264 L487.142857,591.09434 Z M470,580.679245 L471.714286,580.679245 L471.714286,590.226415 L470,590.226415 L470,580.679245 Z M475.142857,580.679245 L476.857143,580.679245 L476.857143,590.226415 L475.142857,590.226415 L475.142857,580.679245 Z M480.285714,580.679245 L482,580.679245 L482,590.226415 L480.285714,590.226415 L480.285714,580.679245 Z M464,592.830189 L464,593.698113 C464,594.177642 464.383571,594.566038 464.857143,594.566038 L487.142857,594.566038 C487.616,594.566038 488,594.177642 488,593.698113 L488,592.830189 L464,592.830189 L464,592.830189 Z M469.999987,566 C463.372577,566 458,571.370114 458,577.999987 L458,590.000013 C458,596.627423 463.370114,602 469.999987,602 L482.000013,602 C488.627423,602 494,596.629886 494,590.000013 L494,577.999987 C494,571.372577 488.629886,566 482.000013,566 L469.999987,566 Z" id="taxes" sketch:type="MSShapeGroup"></path>
        </g>
    </g>
</svg>