<?xml version="1.0" encoding="UTF-8" standalone="no"?>
<svg width="98px" height="97px" viewBox="0 0 98 97" version="1.1" xmlns="http://www.w3.org/2000/svg" xmlns:xlink="http://www.w3.org/1999/xlink" xmlns:sketch="http://www.bohemiancoding.com/sketch/ns">
    <!-- Generator: Sketch 3.0.4 (8053) - http://www.bohemiancoding.com/sketch -->
    <title>data-usage</title>
    <desc>Created with Sketch.</desc>
    <defs></defs>
    <g id="Page-1" stroke="none" stroke-width="1" fill="none" fill-rule="evenodd" sketch:type="MSPage">
        <g id="Tablet-Portrait" sketch:type="MSArtboardGroup" transform="translate(-334.000000, -360.000000)">
            <g id="data-usage" sketch:type="MSLayerGroup" transform="translate(335.000000, 360.000000)">
                <g id="Group" fill="#FEB45C" sketch:type="MSShapeGroup">
                    <path d="M48.3971686,48.4787975 L2.38456973,33.5044529 C8.98991761,13.1422741 27.0214081,0.0209675136 48.3971686,0.0209675136 L48.3971686,48.4787975 L48.3971686,48.4787975 Z" id="Fill-1" opacity="0.3"></path>
                    <path d="M48.3971686,48.4787975 L4.91295857,69.7213396 C-0.709036354,58.1755918 -1.57874774,45.7217057 2.38456973,33.5044529 L48.3971686,48.4787975 Z M48.3971686,48.4787975 L55.1302952,96.4647224 C33.9625151,99.44456 14.2834939,88.9646155 4.91295857,69.7213396 L48.3971686,48.4787975 Z M48.3971686,48.4787975 L48.3971686,0.0209675136 C75.1168012,0.0209675136 96.7774812,21.716081 96.7774812,48.4787975 C96.7774812,73.1001046 79.4732424,93.0385762 55.1302952,96.4647224 L48.3971686,48.4787975 Z" id="Fill-3"></path>
                </g>
                <path d="M17.6948936,57.3555099 L17.6948936,8.89767984 C44.4145262,8.89767984 66.0752063,30.5927934 66.0752063,57.3555099 C66.0752063,81.9768169 48.7709674,101.915289 24.4280203,105.341435 L17.6948936,57.3555099 L17.6948936,57.3555099 Z" id="Stroke-8" sketch:type="MSShapeGroup"></path>
                <ellipse id="Oval-2" fill="#FEE8CE" sketch:type="MSShapeGroup" cx="48.4272997" cy="48.5048924" rx="24.5301682" ry="24.5694716"></ellipse>
                <path d="M48.6023406,59.3897402 L46.0998703,56.8772447 C46.027894,56.80498 45.9284792,56.7602637 45.8187252,56.7602637 C45.5988196,56.7602637 45.4210658,56.9391288 45.4210658,57.1595161 C45.4210658,57.2697098 45.465206,57.3695229 45.53758,57.4417876 L48.7188548,60.635807 C48.7908312,60.708471 48.890246,60.752788 49,60.752788 C49.109754,60.752788 49.2091688,60.708471 49.2811452,60.635807 L52.46242,57.4417876 C52.534794,57.3695229 52.5789342,57.2697098 52.5789342,57.1595161 C52.5789342,56.9391288 52.4011804,56.7602637 52.1812748,56.7602637 C52.0715208,56.7602637 51.972106,56.80498 51.9001297,56.8772447 L49.3976594,59.3897402 L49.3976594,53.5662443 L48.6023406,53.5662443 L48.6023406,59.3897402 L48.6023406,59.3897402 Z M56.4895163,45.5979643 C56.5288845,45.3312637 56.5555277,45.0601713 56.5555277,44.7826908 C56.5555277,41.6960703 54.0629989,39.1931568 50.9882968,39.1931568 C48.5613817,39.1931568 46.5023016,40.7558309 45.7403863,42.9313573 C45.2556395,42.5895973 44.6663084,42.3871763 44.0292581,42.3871763 C42.5308776,42.3871763 41.2941571,43.4978965 41.0826023,44.9431903 C39.2295097,45.4534349 37.8655381,47.152254 37.8655381,49.1744676 C37.8655381,51.5999261 39.8240104,53.5662443 42.239791,53.5662443 L48.6023406,53.5662443 L48.6023406,46.778953 C48.6023406,46.5585656 48.7800944,46.3797006 49,46.3797006 C49.2199056,46.3797006 49.3976594,46.5585656 49.3976594,46.778953 L49.3976594,53.5662443 L56.1578684,53.5662443 C58.354141,53.5662443 60.1344619,51.7787912 60.1344619,49.57372 C60.1344619,47.481238 58.5303041,45.7676466 56.4895163,45.5979643 L56.4895163,45.5979643 Z" id="Fill-2" fill="#FEB45C" sketch:type="MSShapeGroup"></path>
            </g>
        </g>
    </g>
</svg>