<?xml version="1.0" encoding="UTF-8" standalone="no"?>
<svg width="163px" height="17px" viewBox="0 0 163 17" version="1.1" xmlns="http://www.w3.org/2000/svg" xmlns:xlink="http://www.w3.org/1999/xlink" xmlns:sketch="http://www.bohemiancoding.com/sketch/ns">
    <!-- Generator: Sketch 3.0.4 (8053) - http://www.bohemiancoding.com/sketch -->
    <title>logo</title>
    <desc>Created with Sketch.</desc>
    <defs></defs>
    <g id="Page-1" stroke="none" stroke-width="1" fill="none" fill-rule="evenodd" sketch:type="MSPage">
        <g id="Tablet-Portrait" sketch:type="MSArtboardGroup" transform="translate(-18.000000, -18.000000)" fill="#404040">
            <path d="M18.342,33 L21.852,33 L22.986,25.188 L23.022,25.188 L26.136,33 L27.54,33 L30.798,25.188 L30.834,25.188 L31.824,33 L35.352,33 L33.3,19.428 L29.79,19.428 L26.874,26.682 L24.12,19.428 L20.646,19.428 L18.342,33 Z M47.162,30.642 L48.044,33 L51.806,33 L46.694,19.428 L42.842,19.428 L37.622,33 L41.366,33 L42.302,30.642 L47.162,30.642 Z M46.208,27.942 L43.274,27.942 L44.732,23.622 L44.768,23.622 L46.208,27.942 Z M63.148,19.428 L63.148,26.574 C63.148,28.338 63.022,30.264 60.754,30.264 C58.486,30.264 58.36,28.338 58.36,26.574 L58.36,19.428 L54.832,19.428 L54.832,27.06 C54.832,28.806 54.904,30.534 56.254,31.848 C57.388,32.964 59.17,33.36 60.754,33.36 C62.338,33.36 64.12,32.964 65.254,31.848 C66.604,30.534 66.676,28.806 66.676,27.06 L66.676,19.428 L63.148,19.428 Z M74.436,19.428 L70.908,19.428 L70.908,33 L78.666,33 L78.666,30.012 L74.436,30.012 L74.436,19.428 Z M81.818,33 L86.822,33 C90.584,33 93.716,30.03 93.716,26.214 C93.716,22.398 90.602,19.428 86.822,19.428 L81.818,19.428 L81.818,33 Z M85.346,22.416 L86.174,22.416 C88.442,22.416 90.044,23.784 90.044,26.214 C90.044,28.86 88.244,30.012 86.138,30.012 L85.346,30.012 L85.346,22.416 Z M100.882,19.428 L97.354,19.428 L97.354,33 L100.882,33 L100.882,19.428 Z M105.186,33 L108.714,33 L108.714,28.5 L110.712,28.5 C113.79,28.5 115.518,27.096 115.518,23.892 C115.518,20.778 113.502,19.428 110.586,19.428 L105.186,19.428 L105.186,33 Z M108.714,22.272 L109.308,22.272 C110.676,22.272 111.846,22.29 111.846,24 C111.846,25.656 110.586,25.656 109.308,25.656 L108.714,25.656 L108.714,22.272 Z M122.612,24.666 L122.612,19.428 L119.084,19.428 L119.084,33 L122.612,33 L122.612,27.438 L127.706,27.438 L127.706,33 L131.234,33 L131.234,19.428 L127.706,19.428 L127.706,24.666 L122.612,24.666 Z M142.36,18.978 C138.454,18.978 134.854,21.858 134.854,25.962 C134.854,30.354 138.004,33.45 142.36,33.45 C146.716,33.45 149.866,30.354 149.866,25.962 C149.866,21.858 146.266,18.978 142.36,18.978 Z M142.36,22.398 C144.466,22.398 146.194,24.108 146.194,25.98 C146.194,28.32 144.466,30.03 142.36,30.03 C140.254,30.03 138.526,28.32 138.526,25.98 C138.526,24.108 140.254,22.398 142.36,22.398 Z M153.504,33 L157.032,33 L157.032,24.684 L157.068,24.684 L163.53,33 L167.058,33 L167.058,19.428 L163.53,19.428 L163.53,27.726 L163.494,27.726 L157.032,19.428 L153.504,19.428 L153.504,33 Z M179.084,22.416 L179.084,19.428 L171.362,19.428 L171.362,33 L179.084,33 L179.084,30.012 L174.89,30.012 L174.89,27.672 L178.868,27.672 L178.868,24.684 L174.89,24.684 L174.89,22.416 L179.084,22.416 Z" id="logo" sketch:type="MSShapeGroup"></path>
        </g>
    </g>
</svg>