<?xml version="1.0" encoding="UTF-8" standalone="no"?>
<svg width="98px" height="97px" viewBox="0 0 98 97" version="1.1" xmlns="http://www.w3.org/2000/svg" xmlns:xlink="http://www.w3.org/1999/xlink" xmlns:sketch="http://www.bohemiancoding.com/sketch/ns">
    <!-- Generator: Sketch 3.0.4 (8053) - http://www.bohemiancoding.com/sketch -->
    <title>phone-usage</title>
    <desc>Created with Sketch.</desc>
    <defs></defs>
    <g id="Page-1" stroke="none" stroke-width="1" fill="none" fill-rule="evenodd" sketch:type="MSPage">
        <g id="Tablet-Portrait" sketch:type="MSArtboardGroup" transform="translate(-175.000000, -359.000000)">
            <g id="phone-usage" sketch:type="MSLayerGroup" transform="translate(176.000000, 359.000000)">
                <g id="Group" fill="#FEB45C" sketch:type="MSShapeGroup">
                    <path d="M48.3971686,48.4787975 L2.38456973,33.5044529 C8.98991761,13.1422741 27.0214081,0.0209675136 48.3971686,0.0209675136 L48.3971686,48.4787975 L48.3971686,48.4787975 Z" id="Fill-1" opacity="0.3"></path>
                    <path d="M48.3971686,48.4787975 L4.91295857,69.7213396 C-0.709036354,58.1755918 -1.57874774,45.7217057 2.38456973,33.5044529 L48.3971686,48.4787975 Z M48.3971686,48.4787975 L55.1302952,96.4647224 C33.9625151,99.44456 14.2834939,88.9646155 4.91295857,69.7213396 L48.3971686,48.4787975 Z M48.3971686,48.4787975 L48.3971686,0.0209675136 C75.1168012,0.0209675136 96.7774812,21.716081 96.7774812,48.4787975 C96.7774812,73.1001046 79.4732424,93.0385762 55.1302952,96.4647224 L48.3971686,48.4787975 Z" id="Fill-3"></path>
                </g>
                <path d="M17.6948936,57.3555099 L17.6948936,8.89767984 C44.4145262,8.89767984 66.0752063,30.5927934 66.0752063,57.3555099 C66.0752063,81.9768169 48.7709674,101.915289 24.4280203,105.341435 L17.6948936,57.3555099 L17.6948936,57.3555099 Z" id="Stroke-8" sketch:type="MSShapeGroup"></path>
                <ellipse id="Oval-2" fill="#FEE8CE" sketch:type="MSShapeGroup" cx="48.4272997" cy="48.5048924" rx="24.5301682" ry="24.5694716"></ellipse>
                <path d="M61.4729845,57.0704109 C61.2968214,55.9029968 60.213995,54.6313778 58.3430078,53.3936952 C55.6564212,51.6170219 54.9028567,52.0881398 53.8939949,53.0020286 C53.8124747,53.0758903 53.7277733,53.152946 53.6379023,53.2308003 L53.6076802,53.2603449 C53.4951426,53.3805199 53.0970856,53.7262725 52.7594728,53.7366531 C52.6342101,53.7398471 52.530421,53.6963286 52.4270296,53.598911 C51.6384711,52.8531075 49.6147826,50.8987668 49.5344554,50.8217111 L49.538432,50.8173193 C49.538432,50.8173193 47.6411992,48.7567775 46.8637752,47.9750413 C46.7325476,47.8428887 46.7245944,47.7410794 46.729764,47.6760012 C46.7524306,47.4013155 47.0944176,47.0942904 47.2109318,47.0096489 L47.2475165,46.9805035 C47.3489196,46.8874777 47.4515157,46.8016384 47.5509306,46.7181946 C48.6166576,45.8234699 49.1324218,45.0760694 47.3127326,42.2445712 C45.8242937,39.9285078 44.9045076,39.0014437 43.91871,38.8221794 C43.3067123,38.7119857 42.704656,38.9008321 41.97853,39.4302408 C40.7187452,40.3034059 39.4720831,41.2955482 39.2716628,42.956039 C38.9793832,45.382296 40.9927325,48.8537959 45.8569017,54.2680581 L45.8954747,54.3071848 C50.5333757,58.9680577 53.9782987,61.1539647 56.7010723,61.1539647 C56.791341,61.1539647 56.8808143,61.1515692 56.96989,61.1463789 C58.9180232,61.0413755 60.1619016,59.7761446 61.0224365,58.693372 C61.4077684,58.2318362 61.5632532,57.6704873 61.4729845,57.0704109" id="Fill-5" fill="#FEB45C" sketch:type="MSShapeGroup"></path>
            </g>
        </g>
    </g>
</svg>