<?xml version="1.0" encoding="UTF-8" standalone="no"?>
<svg width="36px" height="36px" viewBox="0 0 36 36" version="1.1" xmlns="http://www.w3.org/2000/svg" xmlns:xlink="http://www.w3.org/1999/xlink" xmlns:sketch="http://www.bohemiancoding.com/sketch/ns">
    <!-- Generator: Sketch 3.0.4 (8053) - http://www.bohemiancoding.com/sketch -->
    <title>plan</title>
    <desc>Created with Sketch.</desc>
    <defs></defs>
    <g id="Page-1" stroke="none" stroke-width="1" fill="none" fill-rule="evenodd" sketch:type="MSPage">
        <g id="Tablet-Portrait" sketch:type="MSArtboardGroup" transform="translate(-274.000000, -566.000000)" fill="#666666">
            <path d="M298.623483,578.795353 C297.937828,578.795353 297.382103,578.239629 297.382103,577.553974 C297.382103,576.868733 297.937828,576.312595 298.623483,576.312595 C299.309138,576.312595 299.864862,576.868733 299.864862,577.553974 C299.864862,578.239629 299.309138,578.795353 298.623483,578.795353 L298.623483,578.795353 Z M293.222,578.29 L290.87,578.29 L290.884,579.578 C290.394,579.704 289.946,579.9 289.582,580.166 C288.994,580.6 288.602,581.258 288.602,582.154 C288.602,585.388 293.138,584.478 293.138,585.934 C293.138,586.592 292.578,586.732 291.92,586.732 C291.122,586.732 290.226,586.536 289.554,586.06 L288.42,587.74 C289.036,588.244 289.988,588.51 290.884,588.608 L290.87,589.77 L293.222,589.77 L293.208,588.454 C293.656,588.342 294.062,588.16 294.398,587.922 C295.042,587.46 295.476,586.774 295.476,585.794 C295.476,582.532 290.94,583.358 290.94,582.07 C290.94,581.482 291.416,581.328 292.116,581.328 C292.788,581.328 293.572,581.454 294.188,581.846 L295.266,580.208 C294.734,579.802 293.95,579.578 293.208,579.48 L293.222,578.29 Z M285.999987,566 C279.372577,566 274,571.370114 274,577.999987 L274,590.000013 C274,596.627423 279.370114,602 285.999987,602 L298.000013,602 C304.627423,602 310,596.629886 310,590.000013 L310,577.999987 C310,571.372577 304.629886,566 298.000013,566 L285.999987,566 Z M303.175207,574.657422 C303.175207,573.735491 302.442379,573.00225 301.520034,573.00225 L293.377828,573.000595 C292.939621,572.989008 292.497276,573.146664 292.162931,573.481422 L280.484448,585.159491 C279.838517,585.805836 279.838517,586.853974 280.484448,587.500319 L288.677138,595.693008 C289.323483,596.339353 290.371621,596.339353 291.017966,595.693008 L302.696448,584.014526 C303.030793,583.679767 303.188862,583.237008 303.176862,582.798801 L303.175207,574.657422 Z" id="plan" sketch:type="MSShapeGroup"></path>
        </g>
    </g>
</svg>