<?xml version="1.0" encoding="UTF-8" standalone="no"?>
<svg width="98px" height="97px" viewBox="0 0 98 97" version="1.1" xmlns="http://www.w3.org/2000/svg" xmlns:xlink="http://www.w3.org/1999/xlink" xmlns:sketch="http://www.bohemiancoding.com/sketch/ns">
    <!-- Generator: Sketch 3.0.4 (8053) - http://www.bohemiancoding.com/sketch -->
    <title>text-usage</title>
    <desc>Created with Sketch.</desc>
    <defs></defs>
    <g id="Page-1" stroke="none" stroke-width="1" fill="none" fill-rule="evenodd" sketch:type="MSPage">
        <g id="Tablet-Portrait" sketch:type="MSArtboardGroup" transform="translate(-487.000000, -359.000000)" fill="#F58981">
            <g id="text-usage" sketch:type="MSLayerGroup" transform="translate(488.000000, 359.000000)">
                <path d="M48.4272997,73.074364 C61.9749375,73.074364 72.9574679,62.0742369 72.9574679,48.5048924 C72.9574679,34.9355479 61.9749375,23.9354207 48.4272997,23.9354207 C34.8796619,23.9354207 23.8971316,34.9355479 23.8971316,48.5048924 C23.8971316,62.0742369 34.8796619,73.074364 48.4272997,73.074364 Z M48.3971686,48.4787975 L2.38456973,33.5044529 C8.98991761,13.1422741 27.0214081,0.0209675136 48.3971686,0.0209675136 L48.3971686,48.4787975 Z M48.3971686,48.4787975 L4.91295857,69.7213396 C-0.709036354,58.1755918 -1.57874774,45.7217057 2.38456973,33.5044529 L48.3971686,48.4787975 Z M48.3971686,48.4787975 L55.1302952,96.4647224 C33.9625151,99.44456 14.2834939,88.9646155 4.91295857,69.7213396 L48.3971686,48.4787975 Z M48.3971686,48.4787975 L48.3971686,0.0209675136 C75.1168012,0.0209675136 96.7774812,21.716081 96.7774812,48.4787975 C96.7774812,73.1001046 79.4732424,93.0385762 55.1302952,96.4647224 L48.3971686,48.4787975 Z" id="Fill-1" sketch:type="MSShapeGroup"></path>
                <path d="M48.8952564,37.9916617 C42.7458522,37.9916617 37.7607946,41.9242981 37.7607946,46.7752151 C37.7607946,49.7704069 39.6643899,52.4122602 42.5661102,53.9976916 C42.378415,55.1315685 41.7449436,56.5105864 40.1467507,57.9542831 C40.1467507,57.9542831 44.3170043,57.9522869 46.6178613,55.3735154 C47.3531335,55.4940897 48.1146511,55.5587686 48.8952564,55.5587686 C55.0446607,55.5587686 60.0297183,51.6261321 60.0297183,46.7752151 C60.0297183,41.9242981 55.0446607,37.9916617 48.8952564,37.9916617" id="Fill-4" sketch:type="MSShapeGroup"></path>
            </g>
        </g>
    </g>
</svg>